<mxfile host="app.diagrams.net" agent="Mozilla/5.0 (Windows NT 10.0; Win64; x64) AppleWebKit/537.36 (KHTML, like Gecko) Chrome/135.0.0.0 Safari/537.36" version="26.2.12">
  <diagram name="Page-1" id="fO25P44HGUkOfH7dbofw">
    <mxGraphModel dx="832" dy="450" grid="1" gridSize="10" guides="1" tooltips="1" connect="1" arrows="1" fold="1" page="1" pageScale="1" pageWidth="827" pageHeight="1169" math="0" shadow="0">
      <root>
        <mxCell id="0" />
        <mxCell id="1" parent="0" />
        <mxCell id="WcjkwTNht0lQByTPUBEi-1" value="" style="rounded=0;whiteSpace=wrap;html=1;rotation=90;" vertex="1" parent="1">
          <mxGeometry x="52.51" y="84.25" width="690" height="561.15" as="geometry" />
        </mxCell>
        <mxCell id="WcjkwTNht0lQByTPUBEi-2" value="" style="endArrow=none;html=1;rounded=0;exitX=0.999;exitY=0.37;exitDx=0;exitDy=0;exitPerimeter=0;entryX=0;entryY=0.37;entryDx=0;entryDy=0;entryPerimeter=0;" edge="1" parent="1">
          <mxGeometry width="50" height="50" relative="1" as="geometry">
            <mxPoint x="490.0045000000001" y="674.51499" as="sourcePoint" />
            <mxPoint x="490.00449999999967" y="20.159999999999926" as="targetPoint" />
            <Array as="points">
              <mxPoint x="490.39" y="280.33" />
            </Array>
          </mxGeometry>
        </mxCell>
        <mxCell id="WcjkwTNht0lQByTPUBEi-3" value="" style="endArrow=none;html=1;rounded=0;exitX=0.999;exitY=0.37;exitDx=0;exitDy=0;exitPerimeter=0;entryX=0;entryY=0.37;entryDx=0;entryDy=0;entryPerimeter=0;" edge="1" parent="1">
          <mxGeometry width="50" height="50" relative="1" as="geometry">
            <mxPoint x="300" y="674.34" as="sourcePoint" />
            <mxPoint x="300" y="20.34" as="targetPoint" />
            <Array as="points" />
          </mxGeometry>
        </mxCell>
        <mxCell id="WcjkwTNht0lQByTPUBEi-4" value="" style="endArrow=none;html=1;rounded=0;entryX=0.076;entryY=0;entryDx=0;entryDy=0;entryPerimeter=0;exitX=0.077;exitY=1;exitDx=0;exitDy=0;exitPerimeter=0;" edge="1" parent="1" source="WcjkwTNht0lQByTPUBEi-1" target="WcjkwTNht0lQByTPUBEi-1">
          <mxGeometry width="50" height="50" relative="1" as="geometry">
            <mxPoint x="120" y="70" as="sourcePoint" />
            <mxPoint x="170" y="30" as="targetPoint" />
          </mxGeometry>
        </mxCell>
        <mxCell id="WcjkwTNht0lQByTPUBEi-5" value="User" style="text;html=1;align=center;verticalAlign=middle;whiteSpace=wrap;rounded=0;" vertex="1" parent="1">
          <mxGeometry x="550" y="30" width="60" height="30" as="geometry" />
        </mxCell>
        <mxCell id="WcjkwTNht0lQByTPUBEi-6" value="Admin" style="text;html=1;align=center;verticalAlign=middle;whiteSpace=wrap;rounded=0;" vertex="1" parent="1">
          <mxGeometry x="360" y="30" width="60" height="30" as="geometry" />
        </mxCell>
        <mxCell id="WcjkwTNht0lQByTPUBEi-7" value="Sistem" style="text;html=1;align=center;verticalAlign=middle;whiteSpace=wrap;rounded=0;" vertex="1" parent="1">
          <mxGeometry x="180" y="30" width="60" height="30" as="geometry" />
        </mxCell>
        <mxCell id="WcjkwTNht0lQByTPUBEi-10" style="edgeStyle=orthogonalEdgeStyle;rounded=0;orthogonalLoop=1;jettySize=auto;html=1;exitX=0.5;exitY=1;exitDx=0;exitDy=0;" edge="1" parent="1" source="WcjkwTNht0lQByTPUBEi-8" target="WcjkwTNht0lQByTPUBEi-9">
          <mxGeometry relative="1" as="geometry" />
        </mxCell>
        <mxCell id="WcjkwTNht0lQByTPUBEi-8" value="Mulai" style="ellipse;whiteSpace=wrap;html=1;" vertex="1" parent="1">
          <mxGeometry x="535" y="90" width="90" height="50" as="geometry" />
        </mxCell>
        <mxCell id="WcjkwTNht0lQByTPUBEi-9" value="" style="rounded=1;whiteSpace=wrap;html=1;" vertex="1" parent="1">
          <mxGeometry x="525" y="190" width="110" height="50" as="geometry" />
        </mxCell>
        <mxCell id="WcjkwTNht0lQByTPUBEi-22" style="edgeStyle=orthogonalEdgeStyle;rounded=0;orthogonalLoop=1;jettySize=auto;html=1;entryX=0.5;entryY=0;entryDx=0;entryDy=0;" edge="1" parent="1" source="WcjkwTNht0lQByTPUBEi-11" target="WcjkwTNht0lQByTPUBEi-15">
          <mxGeometry relative="1" as="geometry" />
        </mxCell>
        <mxCell id="WcjkwTNht0lQByTPUBEi-11" value="Login" style="rounded=1;whiteSpace=wrap;html=1;" vertex="1" parent="1">
          <mxGeometry x="335" y="110" width="110" height="50" as="geometry" />
        </mxCell>
        <mxCell id="WcjkwTNht0lQByTPUBEi-16" style="edgeStyle=orthogonalEdgeStyle;rounded=0;orthogonalLoop=1;jettySize=auto;html=1;entryX=0;entryY=0.5;entryDx=0;entryDy=0;" edge="1" parent="1" source="WcjkwTNht0lQByTPUBEi-12" target="WcjkwTNht0lQByTPUBEi-14">
          <mxGeometry relative="1" as="geometry">
            <Array as="points">
              <mxPoint x="210" y="335" />
            </Array>
          </mxGeometry>
        </mxCell>
        <mxCell id="WcjkwTNht0lQByTPUBEi-12" value="Verifikasi" style="rhombus;whiteSpace=wrap;html=1;" vertex="1" parent="1">
          <mxGeometry x="170" y="190" width="80" height="80" as="geometry" />
        </mxCell>
        <mxCell id="WcjkwTNht0lQByTPUBEi-27" style="edgeStyle=orthogonalEdgeStyle;rounded=0;orthogonalLoop=1;jettySize=auto;html=1;entryX=0.5;entryY=0;entryDx=0;entryDy=0;" edge="1" parent="1" source="WcjkwTNht0lQByTPUBEi-14" target="WcjkwTNht0lQByTPUBEi-23">
          <mxGeometry relative="1" as="geometry" />
        </mxCell>
        <mxCell id="WcjkwTNht0lQByTPUBEi-14" value="Halaman Admin" style="rounded=1;whiteSpace=wrap;html=1;" vertex="1" parent="1">
          <mxGeometry x="335" y="310" width="110" height="50" as="geometry" />
        </mxCell>
        <mxCell id="WcjkwTNht0lQByTPUBEi-15" value="&lt;font style=&quot;font-size: 11px;&quot;&gt;Email dan&amp;nbsp;&lt;/font&gt;&lt;div&gt;&lt;font style=&quot;font-size: 11px;&quot;&gt;&lt;span style=&quot;background-color: transparent; color: light-dark(rgb(0, 0, 0), rgb(255, 255, 255));&quot;&gt;Password&amp;nbsp;&amp;nbsp;&lt;/span&gt;&lt;/font&gt;&lt;/div&gt;" style="shape=parallelogram;perimeter=parallelogramPerimeter;whiteSpace=wrap;html=1;fixedSize=1;" vertex="1" parent="1">
          <mxGeometry x="335" y="205" width="110" height="50" as="geometry" />
        </mxCell>
        <mxCell id="WcjkwTNht0lQByTPUBEi-17" style="edgeStyle=orthogonalEdgeStyle;rounded=0;orthogonalLoop=1;jettySize=auto;html=1;entryX=-0.033;entryY=0.384;entryDx=0;entryDy=0;entryPerimeter=0;" edge="1" parent="1" source="WcjkwTNht0lQByTPUBEi-12" target="WcjkwTNht0lQByTPUBEi-11">
          <mxGeometry relative="1" as="geometry">
            <Array as="points">
              <mxPoint x="210" y="129" />
            </Array>
          </mxGeometry>
        </mxCell>
        <mxCell id="WcjkwTNht0lQByTPUBEi-18" value="&lt;font style=&quot;font-size: 10px;&quot;&gt;Salah&lt;/font&gt;" style="text;html=1;align=center;verticalAlign=middle;whiteSpace=wrap;rounded=0;" vertex="1" parent="1">
          <mxGeometry x="210" y="130" width="40" height="30" as="geometry" />
        </mxCell>
        <mxCell id="WcjkwTNht0lQByTPUBEi-19" value="&lt;font style=&quot;font-size: 10px;&quot;&gt;Bener&lt;/font&gt;" style="text;html=1;align=center;verticalAlign=middle;whiteSpace=wrap;rounded=0;" vertex="1" parent="1">
          <mxGeometry x="210" y="300" width="40" height="30" as="geometry" />
        </mxCell>
        <mxCell id="WcjkwTNht0lQByTPUBEi-25" style="edgeStyle=orthogonalEdgeStyle;rounded=0;orthogonalLoop=1;jettySize=auto;html=1;entryX=0.5;entryY=0;entryDx=0;entryDy=0;" edge="1" parent="1" source="WcjkwTNht0lQByTPUBEi-23" target="WcjkwTNht0lQByTPUBEi-24">
          <mxGeometry relative="1" as="geometry" />
        </mxCell>
        <mxCell id="WcjkwTNht0lQByTPUBEi-23" value="Form Data PKL" style="rounded=1;whiteSpace=wrap;html=1;" vertex="1" parent="1">
          <mxGeometry x="335" y="390" width="110" height="50" as="geometry" />
        </mxCell>
        <mxCell id="WcjkwTNht0lQByTPUBEi-24" value="Riwayat Data PKL" style="rounded=1;whiteSpace=wrap;html=1;" vertex="1" parent="1">
          <mxGeometry x="335" y="470" width="110" height="50" as="geometry" />
        </mxCell>
      </root>
    </mxGraphModel>
  </diagram>
</mxfile>
